PathFileType	4	(X/Y/Z)	/home/skhan/TracX/Projects/SHARESPACE/EXERCISES/pose-3d/online_20250326-113730_310-350.trc
DataRate	CameraRate	NumFrames	NumMarkers	Units	OrigDataRate	OrigDataStartFrame	OrigNumFrames
30	30	4	37	m	30	150	1200
Frame#	Time	Hip			RHip			RKnee			RAnkle			RBigToe			RSmallToe			RHeel			LHip			LKnee			LAnkle			LBigToe			LSmallToe			LHeel			Spine_01			Spine_02			Spine_03			Spine_04			Spine_05			LLatissimus			RLatissimus			RClavicle			RShoulder			RElbow			RWrist			LClavicle			LShoulder			LElbow			LWrist			Neck			Neck_02			Neck_03			Head			Nose			LEye			LEar			REye			REar		
		X1	Y1	Z1	X2	Y2	Z2	X3	Y3	Z3	X4	Y4	Z4	X5	Y5	Z5	X6	Y6	Z6	X7	Y7	Z7	X8	Y8	Z8	X9	Y9	Z9	X10	Y10	Z10	X11	Y11	Z11	X12	Y12	Z12	X13	Y13	Z13	X14	Y14	Z14	X15	Y15	Z15	X16	Y16	Z16	X17	Y17	Z17	X18	Y18	Z18	X19	Y19	Z19	X20	Y20	Z20	X21	Y21	Z21	X22	Y22	Z22	X23	Y23	Z23	X24	Y24	Z24	X25	Y25	Z25	X26	Y26	Z26	X27	Y27	Z27	X28	Y28	Z28	X29	Y29	Z29	X30	Y30	Z30	X31	Y31	Z31	X32	Y32	Z32	X33	Y33	Z33	X34	Y34	Z34	X35	Y35	Z35	X36	Y36	Z36	X37	Y37	Z37
150	5.0	-0.09349631527265008	-0.5027751141609675	0.012670944879120833	-0.0691701041696618	-0.4242455167094267	-0.09864942695642585	0.409062392323606	-0.45416013963462143	-0.12019018031145945	0.6379635808685871	-0.8631985417271477	-0.10443213657988497	0.7996330543024344	-0.9437100489289216	-0.11026015605035155	0.7819624333543267	-0.8905864220034364	-0.13580184790495847	0.6623826066918467	-0.9215223031896058	-0.08239861347868142	0.025321858211770458	-0.48272819752508794	0.0865321719139941	0.428146998540708	-0.5256777956435174	0.044158866588282525	0.6638411238160975	-0.902196234446973	-0.034002245912693824	0.8237064674061028	-0.9216153074217155	-0.11625038226626255	0.8277369687036904	-0.9391005623802348	-0.07411062490509171	0.6903659139484711	-0.915728476401876	-0.023395409422164944	-0.1131158494354881	-0.45544912834223433	0.051965359617510344	-0.15376950656128172	-0.40181548315738713	0.10965468568352386	-0.20557166526981038	-0.3325607723383934	0.17901528016884935	-0.2627240372575348	-0.2614144019792985	0.2556581111897771	-0.30687530657911855	-0.18850439230909508	0.34494162932991446	-0.1314696969995246	-0.3805751330632984	0.24375156880730528	-0.3187867603308767	-0.26808176372701303	0.10408463879643953	-0.3336425615312316	-0.19711022931539712	0.2980368376001922	-0.49861796929512064	-0.09981066653748989	0.21133266165862172	-0.5593461461341455	-0.13465312866350454	-0.08182221765866868	-0.4200717759685429	0.04324159110466966	-0.23819379033885235	-0.3024228883386963	-0.21716584475595888	0.3131210538896114	-0.19073008013703405	-0.2708377041936595	0.40984644343732013	0.020043304551175114	-0.36439482142663426	0.11638739625127245	-0.07905932428542918	-0.258232854731773	-0.17233677112529996	-0.3184261434691945	-0.13465511932128507	0.42169468470921456	-0.3123607859306716	-0.11180329569682415	0.4612114636168037	-0.30336403124055705	-0.08107300470725647	0.5163439923651038	-0.2895285870224853	-0.03562786024185543	0.6003037605243318	-0.1598075684773812	-0.13550981561116826	0.43055163698805443	-0.17617319148373445	-0.13575000337312176	0.4692899416794235	-0.20099729577805495	-0.13518401694485596	0.48871104431728096	-0.20303739631206996	-0.10202727195939325	0.4499987489142036	-0.30027660091577163	-0.020256850919062916	0.4444639565763822
151	5.033333333333333	-0.09186025709449101	-0.49597010849348533	0.009054585977419241	-0.06911154902235628	-0.4281250242213488	-0.09901603137399947	0.4088435118140061	-0.4549242190481549	-0.1214814345820535	0.6352722595459028	-0.8610199882238415	-0.10481239272056594	0.7993819758273063	-0.9420249564197388	-0.11246260038328819	0.7797362510046092	-0.8912834428647756	-0.13715984511852314	0.661837755177817	-0.9148163798105269	-0.07880264203809433	0.02574533479852243	-0.4841039785461894	0.089098914976747	0.42709073882994053	-0.528453713220473	0.04684008038903044	0.6644572000671658	-0.9023133805700986	-0.03353855638877404	0.8251228890568308	-0.9173686731838958	-0.11637065946999524	0.828469560899111	-0.9327402396848085	-0.07285262607253676	0.6903076739402101	-0.9098361392068974	-0.020578089906338207	-0.11227413959948179	-0.44970746188178967	0.04813539210336201	-0.153709202458526	-0.3962771337181212	0.1049730036756826	-0.2063634002519755	-0.3271511977545253	0.17453257629414093	-0.2639418032718602	-0.2565933919919855	0.2511326416953882	-0.30891745358554695	-0.18396040519739984	0.3409550218682683	-0.1292478714755999	-0.37159153779710863	0.2420707192337694	-0.3218171103761531	-0.2661348660197996	0.09838657705844496	-0.33536779861580585	-0.19269383311182794	0.2952620951666094	-0.5025654003613492	-0.09958568516336141	0.21227445458087105	-0.5597571030966881	-0.1344622362255596	-0.07918563833709397	-0.4231548438162551	0.044640891734339556	-0.23767260599866216	-0.30393565577665793	-0.21228714487597497	0.3100602146059361	-0.18858181938997426	-0.26598419921579947	0.4081608760331537	0.01802763669996872	-0.35849403762521537	0.1130271337870136	-0.08162298388174537	-0.259371440386577	-0.17674998088310712	-0.3217807354208403	-0.12979479621431828	0.41799949457358276	-0.3163211166875469	-0.10619886335457279	0.4568338664706773	-0.30810962638941336	-0.07484048563543592	0.5109298328810443	-0.2953603264217037	-0.028988681357533054	0.5932292166987643	-0.1670276418229056	-0.12367091476305432	0.4211109433601377	-0.18203522701616345	-0.12158216895023513	0.4622277823404843	-0.202570437604643	-0.12058303279067342	0.49014175441288405	-0.21241573463927282	-0.08711868188184513	0.44164968406432026	-0.31428416717685065	-0.018623853653277123	0.43806110426881284
152	5.066666666666666	-0.08901811525196952	-0.49779887975360027	0.008919098545801089	-0.07037773187274919	-0.43700731086998834	-0.09868828790388581	0.41009285645405663	-0.45927676920629557	-0.12313396613016248	0.6353112655699188	-0.8683252672735704	-0.10900040663866382	0.7967293120631971	-0.9542358987144588	-0.12049527668767783	0.7766882754461468	-0.9010454614802366	-0.14330287627781854	0.6619843252711481	-0.914984568830713	-0.0802194260953368	0.026227110575631464	-0.49060548108639834	0.09046007892437044	0.4259661080056954	-0.5337576738386657	0.049118072530981965	0.6663718705886821	-0.9054474124763164	-0.03421737969101374	0.8270947196207358	-0.9161605571709905	-0.11657963930919388	0.8287718390362528	-0.9306557340623367	-0.07284240424388985	0.6908767310716749	-0.9076815160375754	-0.020147101650334585	-0.11044727759165608	-0.45069561810707504	0.047198923921904945	-0.15315100854674146	-0.39436064607595944	0.104010601361406	-0.206691884322931	-0.32385389369316403	0.17275843564039856	-0.26508783752911913	-0.2513860748079628	0.24844412062912685	-0.3110546487506841	-0.1776495991056993	0.33814993349738015	-0.1270181743759095	-0.366283535561461	0.24103594460482236	-0.32482191710977837	-0.26549505440757987	0.09524073460306974	-0.33727986181021274	-0.1877406763764908	0.2935468696464367	-0.5073623106539821	-0.09715793340094993	0.21278720497631595	-0.5613913129995457	-0.13142929464445555	-0.07742957763110106	-0.42462728867000404	0.04770266179886509	-0.23750002623969324	-0.30525848968275526	-0.20635070392032578	0.307894239155354	-0.18835856581531688	-0.2609299957524681	0.408280559932374	0.01575707237327826	-0.3534444331130554	0.11061686837984977	-0.08410828908686792	-0.26138013919063985	-0.18269060633125375	-0.3249788971026872	-0.12184790768910751	0.4147778515217078	-0.3202608821780881	-0.09746123874202077	0.4526558336682451	-0.31309690641769905	-0.06518497055807033	0.5054904148255661	-0.30205452065818816	-0.018273774248726504	0.585753603275229	-0.1745105498211104	-0.10601409280613287	0.4115691810437467	-0.1888201959093576	-0.10259080067694046	0.4545464827140439	-0.20506353393234772	-0.10448931655233082	0.49125982738153834	-0.22145234425438368	-0.0683381518253735	0.43296880497129814	-0.3290971384216254	-0.015746064853036375	0.4321970532851028
153	5.1	-0.08809457063238406	-0.5034312824052712	0.007902956580866453	-0.07139675802743717	-0.4469164415942814	-0.09813595591929644	0.4103001500492667	-0.4629743560092191	-0.1240815586463157	0.6302869525485916	-0.8834285115689373	-0.12470467215527031	0.7937697851270284	-0.9587760364602205	-0.12626384032840698	0.7684686197637297	-0.9152817125570833	-0.15920187573492534	0.6555017804035292	-0.9332210188709932	-0.09727795864783643	0.027034219409847224	-0.49567984738089	0.0925622383933354	0.426166562587958	-0.5361130928850718	0.050226052226061496	0.6688301333020658	-0.9094357766782735	-0.03530702020328767	0.8279943038402038	-0.9193121950563687	-0.11978306489809241	0.8290197305027167	-0.9336291684677752	-0.07567095842175346	0.6919315803856765	-0.9052251763970253	-0.019243276031584815	-0.11015426722115285	-0.4543778891502099	0.045509102476984614	-0.15313534639666743	-0.3947095217630677	0.10198287746255844	-0.20720149577403313	-0.3215290901569616	0.1698609662591131	-0.265567469369998	-0.24628568002167087	0.24522604232125136	-0.3122681819268609	-0.16948170971395748	0.33488272209805675	-0.12465370752269023	-0.36109671856672626	0.239155926126271	-0.32850826274795686	-0.268768073366703	0.09103973425747074	-0.3383805062429091	-0.18080524090635816	0.2910727453431701	-0.5111737038449867	-0.09477284936476475	0.21244439675675245	-0.5619642443814481	-0.1278020599942957	-0.07678560067464607	-0.42529975964370464	0.05097490853853932	-0.23771130049423458	-0.3055197189464911	-0.19809505811469355	0.3057755888690068	-0.1875114717508211	-0.25362325767606775	0.40782221158253157	0.013654989723862653	-0.3477649218575998	0.10822557780095593	-0.08589942265895227	-0.2627933010066738	-0.18761922240465076	-0.32739729786040433	-0.11090296653454812	0.41128746675660005	-0.32351140132033207	-0.086226323350713	0.44844356511984573	-0.3177284547020718	-0.05398072156278085	0.5000776605515044	-0.3085712253693644	-0.0069753268547566895	0.5788004998719667	-0.1821014913752685	-0.07913410973665455	0.40255577749826277	-0.19585100375382003	-0.07661151525798421	0.4464205278906857	-0.20711595525726317	-0.08493770159002384	0.49072737986140896	-0.23072326539056304	-0.041395303620585674	0.42591155766517813	-0.3429947220489886	-0.008314920968075429	0.4259295377906416
